<svg width="16" height="17" viewBox="0 0 16 17" fill="none" xmlns="http://www.w3.org/2000/svg">
<path d="M6.66667 9.16671H2C1.82319 9.16671 1.65362 9.23695 1.5286 9.36197C1.40357 9.48699 1.33333 9.65656 1.33333 9.83337V14.5C1.33333 14.6769 1.40357 14.8464 1.5286 14.9714C1.65362 15.0965 1.82319 15.1667 2 15.1667H6.66667C6.84348 15.1667 7.01305 15.0965 7.13807 14.9714C7.2631 14.8464 7.33333 14.6769 7.33333 14.5V9.83337C7.33333 9.65656 7.2631 9.48699 7.13807 9.36197C7.01305 9.23695 6.84348 9.16671 6.66667 9.16671ZM6 13.8334H2.66667V10.5H6V13.8334ZM14 1.83337H9.33333C9.15652 1.83337 8.98695 1.90361 8.86193 2.02864C8.73691 2.15366 8.66667 2.32323 8.66667 2.50004V7.16671C8.66667 7.34352 8.73691 7.51309 8.86193 7.63811C8.98695 7.76314 9.15652 7.83337 9.33333 7.83337H14C14.1768 7.83337 14.3464 7.76314 14.4714 7.63811C14.5964 7.51309 14.6667 7.34352 14.6667 7.16671V2.50004C14.6667 2.32323 14.5964 2.15366 14.4714 2.02864C14.3464 1.90361 14.1768 1.83337 14 1.83337ZM13.3333 6.50004H10V3.16671H13.3333V6.50004ZM14 9.16671H9.33333C9.15652 9.16671 8.98695 9.23695 8.86193 9.36197C8.73691 9.48699 8.66667 9.65656 8.66667 9.83337V14.5C8.66667 14.6769 8.73691 14.8464 8.86193 14.9714C8.98695 15.0965 9.15652 15.1667 9.33333 15.1667H14C14.1768 15.1667 14.3464 15.0965 14.4714 14.9714C14.5964 14.8464 14.6667 14.6769 14.6667 14.5V9.83337C14.6667 9.65656 14.5964 9.48699 14.4714 9.36197C14.3464 9.23695 14.1768 9.16671 14 9.16671ZM13.3333 13.8334H10V10.5H13.3333V13.8334ZM6.66667 1.83337H2C1.82319 1.83337 1.65362 1.90361 1.5286 2.02864C1.40357 2.15366 1.33333 2.32323 1.33333 2.50004V7.16671C1.33333 7.34352 1.40357 7.51309 1.5286 7.63811C1.65362 7.76314 1.82319 7.83337 2 7.83337H6.66667C6.84348 7.83337 7.01305 7.76314 7.13807 7.63811C7.2631 7.51309 7.33333 7.34352 7.33333 7.16671V2.50004C7.33333 2.32323 7.2631 2.15366 7.13807 2.02864C7.01305 1.90361 6.84348 1.83337 6.66667 1.83337ZM6 6.50004H2.66667V3.16671H6V6.50004Z" fill="#1CA6AB"/>
</svg>
