<svg width="57" height="43" viewBox="0 0 57 43" fill="none" xmlns="http://www.w3.org/2000/svg">
<g filter="url(#filter0_d_4_1188)">
<path d="M32.6364 34C33.4398 34 34.091 33.34 34.091 32.5258C34.091 31.7116 33.4398 31.0515 32.6364 31.0515C31.8331 31.0515 31.1819 31.7116 31.1819 32.5258C31.1819 33.34 31.8331 34 32.6364 34Z" stroke="#616161" stroke-width="2" stroke-linecap="round" stroke-linejoin="round"/>
<path d="M16.6364 34C17.4398 34 18.091 33.34 18.091 32.5258C18.091 31.7116 17.4398 31.0515 16.6364 31.0515C15.8331 31.0515 15.1819 31.7116 15.1819 32.5258C15.1819 33.34 15.8331 34 16.6364 34Z" stroke="#616161" stroke-width="2" stroke-linecap="round" stroke-linejoin="round"/>
<path d="M5 3.04065H10.8182L14.7164 22.7809C14.8494 23.4597 15.2137 24.0694 15.7455 24.5033C16.2774 24.9372 16.9428 25.1677 17.6255 25.1545H31.7636C32.4463 25.1677 33.1117 24.9372 33.6436 24.5033C34.1754 24.0694 34.5397 23.4597 34.6727 22.7809L37 10.4119H12.2727" stroke="#616161" stroke-width="2" stroke-linecap="round" stroke-linejoin="round"/>
<ellipse cx="41" cy="12.1626" rx="12" ry="12.1626" fill="#1CA6AB"/>
<path d="M40.9547 9.7586C41.2627 9.7586 41.5567 9.8286 41.8367 9.9686C42.126 10.0993 42.3827 10.2766 42.6067 10.5006C42.8307 10.7153 43.008 10.9673 43.1387 11.2566C43.2787 11.5366 43.3487 11.8306 43.3487 12.1386C43.3487 12.4466 43.2787 12.7453 43.1387 13.0346C43.008 13.3239 42.8307 13.5806 42.6067 13.8046C42.3827 14.0193 42.126 14.1966 41.8367 14.3366C41.5567 14.4673 41.2627 14.5326 40.9547 14.5326C40.6467 14.5326 40.348 14.4673 40.0587 14.3366C39.7693 14.1966 39.5127 14.0193 39.2887 13.8046C39.0647 13.5806 38.8827 13.3239 38.7427 13.0346C38.612 12.7453 38.5467 12.4466 38.5467 12.1386C38.5467 11.8306 38.612 11.5366 38.7427 11.2566C38.8827 10.9673 39.0647 10.7153 39.2887 10.5006C39.5127 10.2766 39.7693 10.0993 40.0587 9.9686C40.348 9.8286 40.6467 9.7586 40.9547 9.7586ZM40.9547 13.1606C41.0853 13.1606 41.2113 13.1326 41.3327 13.0766C41.454 13.0206 41.5613 12.9459 41.6547 12.8526C41.7573 12.7593 41.8367 12.6519 41.8927 12.5306C41.958 12.4093 41.9907 12.2786 41.9907 12.1386C41.9907 12.0079 41.958 11.8819 41.8927 11.7606C41.8367 11.6393 41.7573 11.5319 41.6547 11.4386C41.5613 11.3359 41.454 11.2566 41.3327 11.2006C41.2113 11.1446 41.0853 11.1166 40.9547 11.1166C40.824 11.1166 40.6933 11.1446 40.5627 11.2006C40.4413 11.2566 40.3293 11.3359 40.2267 11.4386C40.1333 11.5319 40.054 11.6393 39.9887 11.7606C39.9327 11.8819 39.9047 12.0079 39.9047 12.1386C39.9047 12.2786 39.9327 12.4093 39.9887 12.5306C40.054 12.6519 40.1333 12.7593 40.2267 12.8526C40.3293 12.9459 40.4413 13.0206 40.5627 13.0766C40.6933 13.1326 40.824 13.1606 40.9547 13.1606Z" fill="white"/>
</g>
<defs>
<filter id="filter0_d_4_1188" x="0" y="0" width="57" height="43" filterUnits="userSpaceOnUse" color-interpolation-filters="sRGB">
<feFlood flood-opacity="0" result="BackgroundImageFix"/>
<feColorMatrix in="SourceAlpha" type="matrix" values="0 0 0 0 0 0 0 0 0 0 0 0 0 0 0 0 0 0 127 0" result="hardAlpha"/>
<feOffset dy="4"/>
<feGaussianBlur stdDeviation="2"/>
<feComposite in2="hardAlpha" operator="out"/>
<feColorMatrix type="matrix" values="0 0 0 0 0 0 0 0 0 0 0 0 0 0 0 0 0 0 0.25 0"/>
<feBlend mode="normal" in2="BackgroundImageFix" result="effect1_dropShadow_4_1188"/>
<feBlend mode="normal" in="SourceGraphic" in2="effect1_dropShadow_4_1188" result="shape"/>
</filter>
</defs>
</svg>
