<svg width="97" height="68" viewBox="0 0 97 68" fill="none" xmlns="http://www.w3.org/2000/svg">
<circle cx="77" cy="27" r="20" fill="#E6F4F1"/>
<circle cx="14.5" cy="49.5" r="14.5" fill="#E6F4F1"/>
<circle cx="16" cy="16" r="6" fill="#E6F4F1"/>
<circle cx="63.5" cy="63.5" r="4.5" fill="#E6F4F1"/>
<path d="M33.9922 1.13743C32.4922 1.31243 30.6758 1.82493 29.5859 2.36243C27.9102 3.19993 26.8555 4.23743 26.1406 5.73743C25.5547 6.97493 25.5195 7.24993 25.4727 10.8749C25.4141 14.5124 25.4492 14.8624 25.9531 15.6499L26.2344 16.0999L25.8594 16.8874C25.5195 17.6124 25.4961 17.7749 25.4961 18.9374C25.5078 19.9874 25.543 20.2874 25.7773 20.7874C26.1406 21.5874 27.0547 22.4374 27.8164 22.6999C28.4141 22.8999 28.4375 22.9124 28.7656 23.7749C28.9414 24.2624 29.3281 25.0124 29.6094 25.4624C29.8906 25.9124 30.125 26.3124 30.125 26.3499C30.125 26.3874 29.3047 27.2999 28.3086 28.3874C26.3398 30.5249 26.2695 30.6624 26.6797 31.5124L26.8555 31.8999L24.7109 34.2249C23.5273 35.5124 22.2266 37.0124 21.8164 37.5624C20.0938 39.8374 19.0625 41.9499 18.9219 43.4749L18.8516 44.1874L21.2188 49.2499C22.5195 52.0374 23.6914 54.4374 23.8203 54.5874C24.0547 54.8624 24.5703 55.0124 25.8242 55.1874L26.3984 55.2749L26.3516 58.3374L26.3164 61.3999L26.5977 61.6374C26.9727 61.9624 27.5586 61.9499 27.875 61.5874C28.1094 61.3249 28.1328 61.1624 28.1328 59.6749V58.0624L28.5547 58.5874C29.5859 59.9124 31.6016 61.2749 33.1133 61.6874C35.4219 62.3124 38.7148 61.4999 47.6328 58.1124C49.2383 57.4999 50.5625 56.9999 50.5859 56.9999C50.5977 56.9999 50.6328 58.0124 50.6562 59.2624C50.6914 61.4624 50.7031 61.5249 50.9727 61.7624C51.3477 62.0874 51.875 62.0624 52.2148 61.6874C52.5078 61.3874 52.5078 61.3749 52.5078 58.9499V56.5124L53.1875 56.3749C53.5508 56.2999 53.9375 56.1999 54.0312 56.1624C54.125 56.1124 56.6914 56.0374 59.7148 55.9999C64.9766 55.9249 65.2578 55.8999 65.9258 55.6499C67.3789 55.0749 68.2578 54.0249 68.4102 52.6249L68.4805 51.9999H71.9258H75.3711L75.6523 51.6874L75.9453 51.3874V37.3874V23.3874L75.6875 23.1999C75.4531 23.0249 73.9531 22.9999 61.9648 22.9999H48.5117L48.2305 23.3124L47.9375 23.6124V27.1249C47.9375 30.1874 47.9141 30.6249 47.7617 30.6249C47.6562 30.6249 47.1406 30.5124 46.6016 30.3624L45.6289 30.0999L44.3633 28.7499L43.1094 27.3999L43.6367 26.6999C44.9609 24.9874 45.793 22.0374 46.0156 18.3999L46.0977 17.0374L47.2109 16.9499C50.1758 16.7249 52.3086 15.6249 52.9766 13.9749C53.7383 12.0999 52.5547 9.53743 50.4336 8.46243L49.6367 8.06243L47.3398 8.02493L45.0312 7.97493L44.8438 7.14993C44.3281 4.93743 42.8867 2.98743 41.0234 2.01243C40.4727 1.72493 39.6641 1.41243 39.207 1.29993C38.1875 1.06243 35.3281 0.974932 33.9922 1.13743ZM38.8555 3.31243C40.0156 3.62493 40.918 4.17493 41.6562 4.98743C42.2773 5.69993 42.8984 6.83743 43.0742 7.64993L43.1562 7.97493L40.7656 8.02493C38.668 8.07493 38.3047 8.11243 37.6484 8.36243C36.1016 8.96243 34.4258 10.4624 33.0312 12.4999C32.2578 13.6249 31.4609 14.4374 30.793 14.7624C30.418 14.9374 30.0312 14.9999 29.0938 14.9999C27.957 14.9999 27.875 14.9874 27.5938 14.6874L27.3008 14.3624L27.3359 11.0249L27.3711 7.67493L27.8164 6.71243C28.4961 5.26243 29.5156 4.43743 31.5078 3.74993C33.0547 3.21243 33.1602 3.23743 32.6211 3.96243C31.7539 5.17493 31.0625 7.31243 31.0625 8.81243C31.0625 9.24993 31.1328 9.46243 31.3555 9.68743C31.9648 10.3499 32.9375 9.87493 32.9375 8.91243C32.9375 8.11243 33.2539 6.82493 33.6406 6.01243C34.2969 4.62493 35.1523 3.83743 36.5469 3.36243C37.3789 3.08743 37.9648 3.07493 38.8555 3.31243ZM42.7695 10.9624C42.2891 11.4999 41.6445 12.2749 41.3516 12.6874C40.6602 13.6624 39.8398 14.4624 39.2305 14.7624C38.7969 14.9624 38.4453 14.9999 36.1953 14.9999H33.6523L34.5195 13.7749C35.5273 12.3499 36.3711 11.4499 37.2734 10.8374C38.4102 10.0749 38.7148 10.0124 41.3047 9.99993H43.6367L42.7695 10.9624ZM49.2617 10.1374C50.1758 10.3999 51.3359 11.8874 51.3359 12.7624C51.3359 13.3749 50.7383 14.0124 49.8477 14.3749C49.0742 14.6749 47.4219 14.9999 46.6016 14.9999H45.9922L45.7344 13.3999C45.5938 12.5249 45.4414 11.6624 45.4062 11.4749C45.3359 11.1624 45.3945 11.1124 46.168 10.6874C47.4219 10.0249 48.3359 9.86243 49.2617 10.1374ZM43.918 13.7124C44.1523 14.9499 44.2461 18.5874 44.082 19.8999C43.7539 22.5374 42.9102 24.6999 41.7266 25.9874C40.0859 27.7624 37.2148 28.4499 34.9414 27.6124C33.9805 27.2624 32.6211 26.2874 31.9414 25.4624C31.3438 24.7249 30.7109 23.5249 30.2891 22.2874C29.9727 21.3499 29.668 21.0124 29.1289 20.9999C28.5664 20.9999 27.7695 20.4999 27.5234 19.9999C27.1484 19.2249 27.3008 17.7874 27.8164 17.2749C28.0742 17.0124 28.1445 17.0124 33.6992 16.9749L39.3242 16.9374L40.1094 16.5249C41.1172 15.9999 42.0078 15.1249 42.9219 13.7874C43.3086 13.2124 43.6602 12.7749 43.6953 12.8124C43.7305 12.8374 43.8242 13.2499 43.918 13.7124ZM57.3125 28.5624C57.3125 31.4624 57.3477 32.1999 57.4883 32.4874C57.8398 33.2374 58.1328 33.1874 60.2891 32.0499L62.082 31.0999L63.8516 32.0499C64.8359 32.5749 65.7383 32.9999 65.8672 32.9999C66.0078 32.9999 66.2422 32.8624 66.3945 32.6874L66.6875 32.3874V28.6874V24.9999H70.4375H74.1875V37.4999V49.9999H68.8789H63.5586L63.3711 49.2499C63.125 48.3124 62.5625 47.6249 61.7539 47.2624C61.1797 46.9874 61.0625 46.9874 57.1016 47.0249L53.0352 47.0749L51.6641 47.4624C50.9023 47.6749 50.1758 47.8874 50.0469 47.9374C49.8125 48.0124 49.8125 47.9999 49.8125 36.5124V24.9999H53.5625H57.3125V28.5624ZM64.8125 27.6874V30.3749L63.5234 29.6874C62.8203 29.3124 62.1289 28.9999 62 28.9999C61.8711 28.9999 61.1797 29.3124 60.4766 29.6874L59.1875 30.3749V27.6874V24.9999H62H64.8125V27.6874ZM33.2891 29.7874L35.2812 31.1999L34.0156 32.8999L32.75 34.5999L30.8281 32.9124C29.7617 31.9874 28.8477 31.1749 28.7773 31.1124C28.707 31.0374 29.1055 30.5249 29.8906 29.6874C30.5703 28.9624 31.1562 28.3749 31.2031 28.3749C31.2617 28.3749 32.1992 29.0124 33.2891 29.7874ZM43.5547 32.0999C43.3203 32.5999 43.0859 32.9999 43.0391 32.9999C42.9922 32.9999 42.7578 32.6999 42.5234 32.3374C42.2891 31.9874 41.9492 31.4874 41.7852 31.2374L41.4805 30.7874L41.75 29.9499L42.0195 29.1249L42.9922 30.1624L43.9766 31.2124L43.5547 32.0999ZM39.793 29.7749C39.7461 29.9374 39.5 30.6499 39.2422 31.3749C38.9844 32.0999 38.75 32.7874 38.7148 32.8999C38.6797 33.0249 38.6094 33.1249 38.5742 33.1249C38.5273 33.1249 38.2812 32.5749 38.0352 31.8999C37.7891 31.2374 37.4375 30.5374 37.2734 30.3624L36.9688 30.0249L37.7891 29.9374C38.2461 29.8874 38.8555 29.7749 39.1484 29.6874C39.8867 29.4749 39.875 29.4749 39.793 29.7749ZM46.625 32.5124L47.7031 32.7749V40.7499V48.7124L42.9922 50.3874C38.6562 51.9249 38.1992 52.0624 37.4492 52.0499C36.5234 52.0374 35.8086 51.7499 35.1172 51.0874C34.8594 50.8374 33.9688 49.3499 32.7266 47.0624C31.6367 45.0749 30.6055 43.3374 30.4414 43.2124C30.1016 42.9249 29.668 42.9874 29.3047 43.3749C28.8594 43.8499 28.9883 44.2624 30.4297 46.7874L31.8008 49.1749L31.6133 49.7124C30.7812 52.0874 28.625 53.5124 26.0938 53.3374C25.5898 53.2999 25.1328 53.2249 25.0859 53.1624C25.0273 53.1124 24.0312 50.9624 22.8477 48.3999L20.7148 43.7249L20.9258 43.0249C21.4883 41.0874 22.5078 39.6124 25.6602 36.2124C27.1133 34.6499 28.3203 33.3749 28.3672 33.3749C28.4023 33.3749 29.3516 34.1874 30.4766 35.1874C32.457 36.9374 32.7383 37.1249 33.2305 36.9249C33.3242 36.8749 34.0508 35.9749 34.8359 34.9124C35.6094 33.8499 36.2891 33.0249 36.3359 33.0874C36.3945 33.1374 36.7109 33.9124 37.0508 34.8124C37.4023 35.6999 37.7773 36.5374 37.8828 36.6499C38.1992 36.9874 38.8438 36.9374 39.1133 36.5749C39.2422 36.4124 39.5938 35.5624 39.9102 34.6999C40.2148 33.8249 40.5078 33.1374 40.5664 33.1499C40.6133 33.1749 41.0703 33.7749 41.5742 34.4999C43.0625 36.6249 43.3555 36.5749 44.5859 33.9624C45.043 33.0249 45.4297 32.2499 45.4648 32.2499C45.5 32.2499 46.0273 32.3624 46.625 32.5124ZM61.2031 49.2499C61.3672 49.3874 61.5312 49.6124 61.5664 49.7499C61.625 49.9874 61.5781 49.9999 60.2305 49.9999C58.8945 49.9999 58.8125 50.0124 58.543 50.3124C58.3555 50.4999 58.25 50.7624 58.25 50.9999C58.25 51.2374 58.3555 51.4999 58.543 51.6874C58.8125 51.9874 58.8711 51.9999 60.6289 51.9999C63.8281 51.9999 66.6875 52.1499 66.6875 52.3124C66.6875 52.6624 66.125 53.3374 65.5742 53.6249L64.9883 53.9374L59.5977 54.0124C54.3359 54.0874 54.1719 54.0999 52.8008 54.4124C52.0273 54.5999 50.2344 55.1749 48.8164 55.6999C36.3828 60.2874 34.8359 60.6249 32.375 59.2999C31.8828 59.0249 31.168 58.4874 30.6875 58.0124C29.7734 57.1124 28.4141 55.2624 28.5664 55.1249C28.6133 55.0749 28.8711 54.9624 29.1289 54.8749C30.4648 54.4249 31.5547 53.5999 32.5039 52.3374C32.8203 51.9124 33.1016 51.5374 33.125 51.5124C33.1484 51.4874 33.2891 51.6249 33.4297 51.8249C34.543 53.3374 36.5352 54.2624 38.2695 54.0624C38.7617 54.0124 40.6836 53.3874 43.8594 52.2374C52.9531 48.9499 52.6719 49.0249 57.2656 49.0124C60.7227 48.9999 60.9336 49.0124 61.2031 49.2499Z" fill="#005C6D"/>
<path d="M52.918 40.3125C52.7305 40.5 52.625 40.7625 52.625 41C52.625 41.2375 52.7305 41.5 52.918 41.6875C53.1875 41.9875 53.2812 42 54.5 42C55.7188 42 55.8125 41.9875 56.082 41.6875C56.2695 41.5 56.375 41.2375 56.375 41C56.375 40.7625 56.2695 40.5 56.082 40.3125C55.8125 40.0125 55.7188 40 54.5 40C53.2812 40 53.1875 40.0125 52.918 40.3125Z" fill="#005C6D"/>
<path d="M52.918 43.3125C52.7305 43.5 52.625 43.7625 52.625 44C52.625 44.2375 52.7305 44.5 52.918 44.6875C53.1992 45 53.2227 45 55.4375 45C57.6523 45 57.6758 45 57.957 44.6875C58.1445 44.5 58.25 44.2375 58.25 44C58.25 43.7625 58.1445 43.5 57.957 43.3125C57.6758 43 57.6523 43 55.4375 43C53.2227 43 53.1992 43 52.918 43.3125Z" fill="#005C6D"/>
</svg>
