<svg width="105" height="12" viewBox="0 0 105 12" fill="none" xmlns="http://www.w3.org/2000/svg">
<path d="M3.93028 3.052C4.32628 3.052 4.70428 3.142 5.06428 3.322C5.43628 3.49 5.76628 3.718 6.05428 4.006C6.34228 4.282 6.57028 4.606 6.73828 4.978C6.91828 5.338 7.00828 5.716 7.00828 6.112C7.00828 6.508 6.91828 6.892 6.73828 7.264C6.57028 7.636 6.34228 7.966 6.05428 8.254C5.76628 8.53 5.43628 8.758 5.06428 8.938C4.70428 9.106 4.32628 9.19 3.93028 9.19C3.53428 9.19 3.15028 9.106 2.77828 8.938C2.40628 8.758 2.07628 8.53 1.78828 8.254C1.50028 7.966 1.26628 7.636 1.08628 7.264C0.918281 6.892 0.834281 6.508 0.834281 6.112C0.834281 5.716 0.918281 5.338 1.08628 4.978C1.26628 4.606 1.50028 4.282 1.78828 4.006C2.07628 3.718 2.40628 3.49 2.77828 3.322C3.15028 3.142 3.53428 3.052 3.93028 3.052ZM3.93028 7.426C4.09828 7.426 4.26028 7.39 4.41628 7.318C4.57228 7.246 4.71028 7.15 4.83028 7.03C4.96228 6.91 5.06428 6.772 5.13628 6.616C5.22028 6.46 5.26228 6.292 5.26228 6.112C5.26228 5.944 5.22028 5.782 5.13628 5.626C5.06428 5.47 4.96228 5.332 4.83028 5.212C4.71028 5.08 4.57228 4.978 4.41628 4.906C4.26028 4.834 4.09828 4.798 3.93028 4.798C3.76228 4.798 3.59428 4.834 3.42628 4.906C3.27028 4.978 3.12628 5.08 2.99428 5.212C2.87428 5.332 2.77228 5.47 2.68828 5.626C2.61628 5.782 2.58028 5.944 2.58028 6.112C2.58028 6.292 2.61628 6.46 2.68828 6.616C2.77228 6.772 2.87428 6.91 2.99428 7.03C3.12628 7.15 3.27028 7.246 3.42628 7.318C3.59428 7.39 3.76228 7.426 3.93028 7.426ZM12.9037 11.098V6.4C12.4117 6.592 11.8657 6.688 11.2657 6.688C10.7977 6.688 10.3897 6.616 10.0417 6.472C9.7057 6.328 9.4297 6.13 9.2137 5.878C8.9977 5.626 8.8357 5.332 8.7277 4.996C8.6317 4.66 8.5837 4.3 8.5837 3.916C8.5837 3.46 8.6557 3.016 8.7997 2.584C8.9557 2.14 9.1657 1.75 9.4297 1.414C9.7057 1.078 10.0357 0.808 10.4197 0.604C10.8157 0.399999 11.2477 0.297999 11.7157 0.297999C12.2557 0.297999 12.7117 0.417999 13.0837 0.657999C13.4677 0.898 13.7737 1.222 14.0017 1.63C14.2417 2.026 14.4157 2.488 14.5237 3.016C14.6317 3.544 14.6857 4.102 14.6857 4.69V11.098H12.9037ZM12.9037 4.312C12.9037 4.048 12.8797 3.79 12.8317 3.538C12.7837 3.274 12.7057 3.046 12.5977 2.854C12.4897 2.662 12.3517 2.506 12.1837 2.386C12.0157 2.266 11.8117 2.206 11.5717 2.206C11.3797 2.206 11.2057 2.248 11.0497 2.332C10.8937 2.416 10.7617 2.53 10.6537 2.674C10.5457 2.806 10.4617 2.962 10.4017 3.142C10.3537 3.31 10.3297 3.478 10.3297 3.646C10.3297 3.97 10.4317 4.216 10.6357 4.384C10.8397 4.552 11.1337 4.636 11.5177 4.636C11.7937 4.636 12.0337 4.612 12.2377 4.564C12.4537 4.516 12.6757 4.432 12.9037 4.312ZM22.3108 0.405999C22.4068 0.849999 22.4788 1.294 22.5268 1.738C22.5868 2.17 22.6168 2.572 22.6168 2.944C22.6168 3.016 22.6108 3.088 22.5988 3.16C22.5988 3.232 22.5868 3.316 22.5628 3.412C22.6948 3.556 22.8448 3.664 23.0128 3.736C23.1808 3.808 23.3428 3.844 23.4988 3.844C23.8348 3.844 24.0928 3.748 24.2728 3.556C24.4528 3.364 24.5428 3.148 24.5428 2.908C24.5428 2.464 24.4468 1.762 24.2548 0.801999L26.0008 0.405999C26.0968 0.849999 26.1688 1.294 26.2168 1.738C26.2648 2.182 26.2888 2.596 26.2888 2.98C26.2888 3.388 26.2288 3.766 26.1088 4.114C25.9888 4.45 25.8148 4.744 25.5868 4.996C25.3708 5.248 25.1008 5.446 24.7768 5.59C24.4648 5.734 24.1168 5.806 23.7328 5.806C23.3968 5.806 23.0668 5.746 22.7428 5.626C22.4308 5.506 22.1308 5.296 21.8428 4.996C21.6148 5.26 21.3508 5.464 21.0508 5.608C20.7508 5.74 20.4028 5.806 20.0068 5.806C19.4668 5.806 19.0588 5.662 18.7828 5.374C18.8068 5.602 18.8248 5.842 18.8368 6.094C18.8488 6.334 18.8548 6.592 18.8548 6.868V11.098H17.0188V6.724C17.0188 6.004 17.0008 5.386 16.9648 4.87C16.9288 4.342 16.8748 3.868 16.8028 3.448C16.7308 3.028 16.6408 2.632 16.5328 2.26C16.4368 1.876 16.3288 1.468 16.2088 1.036L17.9548 0.405999C18.0628 0.825999 18.1588 1.204 18.2428 1.54C18.3388 1.876 18.4348 2.224 18.5308 2.584C18.5788 2.752 18.6328 2.914 18.6928 3.07C18.7528 3.226 18.8308 3.364 18.9268 3.484C19.0228 3.592 19.1368 3.682 19.2688 3.754C19.4128 3.814 19.5868 3.844 19.7908 3.844C20.1268 3.844 20.3848 3.754 20.5648 3.574C20.7568 3.394 20.8528 3.166 20.8528 2.89C20.8528 2.518 20.7508 1.822 20.5468 0.801999L22.3108 0.405999ZM31.0006 3.052C31.3966 3.052 31.7746 3.142 32.1346 3.322C32.5066 3.49 32.8366 3.718 33.1246 4.006C33.4126 4.282 33.6406 4.606 33.8086 4.978C33.9886 5.338 34.0786 5.716 34.0786 6.112C34.0786 6.508 33.9886 6.892 33.8086 7.264C33.6406 7.636 33.4126 7.966 33.1246 8.254C32.8366 8.53 32.5066 8.758 32.1346 8.938C31.7746 9.106 31.3966 9.19 31.0006 9.19C30.6046 9.19 30.2206 9.106 29.8486 8.938C29.4766 8.758 29.1466 8.53 28.8586 8.254C28.5706 7.966 28.3366 7.636 28.1566 7.264C27.9886 6.892 27.9046 6.508 27.9046 6.112C27.9046 5.716 27.9886 5.338 28.1566 4.978C28.3366 4.606 28.5706 4.282 28.8586 4.006C29.1466 3.718 29.4766 3.49 29.8486 3.322C30.2206 3.142 30.6046 3.052 31.0006 3.052ZM31.0006 7.426C31.1686 7.426 31.3306 7.39 31.4866 7.318C31.6426 7.246 31.7806 7.15 31.9006 7.03C32.0326 6.91 32.1346 6.772 32.2066 6.616C32.2906 6.46 32.3326 6.292 32.3326 6.112C32.3326 5.944 32.2906 5.782 32.2066 5.626C32.1346 5.47 32.0326 5.332 31.9006 5.212C31.7806 5.08 31.6426 4.978 31.4866 4.906C31.3306 4.834 31.1686 4.798 31.0006 4.798C30.8326 4.798 30.6646 4.834 30.4966 4.906C30.3406 4.978 30.1966 5.08 30.0646 5.212C29.9446 5.332 29.8426 5.47 29.7586 5.626C29.6866 5.782 29.6506 5.944 29.6506 6.112C29.6506 6.292 29.6866 6.46 29.7586 6.616C29.8426 6.772 29.9446 6.91 30.0646 7.03C30.1966 7.15 30.3406 7.246 30.4966 7.318C30.6646 7.39 30.8326 7.426 31.0006 7.426ZM39.29 5.806C38.75 5.806 38.342 5.662 38.066 5.374C38.09 5.602 38.108 5.842 38.12 6.094C38.132 6.334 38.138 6.592 38.138 6.868V11.098H36.302V6.724C36.302 6.004 36.284 5.386 36.248 4.87C36.212 4.342 36.158 3.868 36.086 3.448C36.014 3.028 35.924 2.632 35.816 2.26C35.72 1.876 35.612 1.468 35.492 1.036L37.238 0.405999C37.346 0.825999 37.442 1.204 37.526 1.54C37.622 1.876 37.718 2.224 37.814 2.584C37.862 2.752 37.916 2.914 37.976 3.07C38.036 3.226 38.114 3.364 38.21 3.484C38.306 3.592 38.42 3.682 38.552 3.754C38.696 3.814 38.87 3.844 39.074 3.844C39.41 3.844 39.668 3.754 39.848 3.574C40.04 3.394 40.136 3.166 40.136 2.89C40.136 2.518 40.034 1.822 39.83 0.801999L41.594 0.405999C41.69 0.849999 41.762 1.294 41.81 1.738C41.87 2.17 41.9 2.572 41.9 2.944C41.9 3.364 41.834 3.754 41.702 4.114C41.582 4.462 41.408 4.762 41.18 5.014C40.964 5.266 40.694 5.464 40.37 5.608C40.046 5.74 39.686 5.806 39.29 5.806ZM43.4964 8.452C43.4964 8.08 43.5384 7.69 43.6224 7.282C43.7184 6.862 43.8924 6.406 44.1444 5.914C44.3964 5.41 44.7444 4.852 45.1884 4.24C45.6324 3.616 46.2024 2.908 46.8984 2.116L46.1604 1.468L47.2764 0.135999C48.4524 1.096 49.4064 1.96 50.1384 2.728C50.8704 3.496 51.4344 4.204 51.8304 4.852C52.2384 5.488 52.5144 6.076 52.6584 6.616C52.8024 7.144 52.8744 7.654 52.8744 8.146C52.8744 8.65 52.7904 9.094 52.6224 9.478C52.4664 9.862 52.2564 10.18 51.9924 10.432C51.7284 10.684 51.4284 10.87 51.0924 10.99C50.7684 11.122 50.4384 11.188 50.1024 11.188C49.6464 11.188 49.2624 11.11 48.9504 10.954C48.6384 10.81 48.3624 10.594 48.1224 10.306C47.8704 10.606 47.5644 10.828 47.2044 10.972C46.8444 11.116 46.4904 11.188 46.1424 11.188C45.3144 11.188 44.6664 10.942 44.1984 10.45C43.7304 9.958 43.4964 9.292 43.4964 8.452ZM51.1104 8.092C51.1104 7.84 51.0744 7.558 51.0024 7.246C50.9304 6.922 50.7864 6.562 50.5704 6.166C50.3664 5.77 50.0664 5.332 49.6704 4.852C49.2744 4.372 48.7524 3.844 48.1044 3.268C47.0964 4.336 46.3644 5.26 45.9084 6.04C45.4644 6.82 45.2424 7.486 45.2424 8.038C45.2424 8.386 45.3324 8.674 45.5124 8.902C45.7044 9.118 45.9804 9.226 46.3404 9.226C46.6404 9.226 46.9044 9.136 47.1324 8.956C47.3724 8.776 47.4924 8.452 47.4924 7.984V6.904H49.1124V7.768C49.1124 7.984 49.1004 8.176 49.0764 8.344C49.0524 8.5 49.0164 8.65 48.9684 8.794C49.2564 9.082 49.5984 9.226 49.9944 9.226C50.3184 9.226 50.5824 9.124 50.7864 8.92C51.0024 8.716 51.1104 8.44 51.1104 8.092ZM58.351 7.75C58.471 7.09 58.597 6.466 58.729 5.878C58.861 5.278 59.029 4.684 59.233 4.096C59.437 3.496 59.689 2.884 59.989 2.26C60.289 1.624 60.667 0.94 61.123 0.207999L62.653 1.162C62.197 1.942 61.789 2.686 61.429 3.394C61.069 4.09 60.745 4.822 60.457 5.59C60.169 6.346 59.905 7.168 59.665 8.056C59.437 8.944 59.215 9.958 58.999 11.098H57.721C57.505 9.958 57.277 8.944 57.037 8.056C56.797 7.168 56.533 6.346 56.245 5.59C55.957 4.822 55.633 4.09 55.273 3.394C54.925 2.686 54.523 1.942 54.067 1.162L55.579 0.207999C56.035 0.94 56.413 1.624 56.713 2.26C57.013 2.884 57.265 3.496 57.469 4.096C57.685 4.684 57.859 5.278 57.991 5.878C58.123 6.466 58.243 7.09 58.351 7.75ZM69.6839 0.405999C69.7799 0.849999 69.8519 1.294 69.8999 1.738C69.9599 2.17 69.9899 2.572 69.9899 2.944C69.9899 3.016 69.9839 3.088 69.9719 3.16C69.9719 3.232 69.9599 3.316 69.9359 3.412C70.0679 3.556 70.2179 3.664 70.3859 3.736C70.5539 3.808 70.7159 3.844 70.8719 3.844C71.2079 3.844 71.4659 3.748 71.6459 3.556C71.8259 3.364 71.9159 3.148 71.9159 2.908C71.9159 2.464 71.8199 1.762 71.6279 0.801999L73.3739 0.405999C73.4699 0.849999 73.5419 1.294 73.5899 1.738C73.6379 2.182 73.6619 2.596 73.6619 2.98C73.6619 3.388 73.6019 3.766 73.4819 4.114C73.3619 4.45 73.1879 4.744 72.9599 4.996C72.7439 5.248 72.4739 5.446 72.1499 5.59C71.8379 5.734 71.4899 5.806 71.1059 5.806C70.7699 5.806 70.4399 5.746 70.1159 5.626C69.8039 5.506 69.5039 5.296 69.2159 4.996C68.9879 5.26 68.7239 5.464 68.4239 5.608C68.1239 5.74 67.7759 5.806 67.3799 5.806C66.8399 5.806 66.4319 5.662 66.1559 5.374C66.1799 5.602 66.1979 5.842 66.2099 6.094C66.2219 6.334 66.2279 6.592 66.2279 6.868V11.098H64.3919V6.724C64.3919 6.004 64.3739 5.386 64.3379 4.87C64.3019 4.342 64.2479 3.868 64.1759 3.448C64.1039 3.028 64.0139 2.632 63.9059 2.26C63.8099 1.876 63.7019 1.468 63.5819 1.036L65.3279 0.405999C65.4359 0.825999 65.5319 1.204 65.6159 1.54C65.7119 1.876 65.8079 2.224 65.9039 2.584C65.9519 2.752 66.0059 2.914 66.0659 3.07C66.1259 3.226 66.2039 3.364 66.2999 3.484C66.3959 3.592 66.5099 3.682 66.6419 3.754C66.7859 3.814 66.9599 3.844 67.1639 3.844C67.4999 3.844 67.7579 3.754 67.9379 3.574C68.1299 3.394 68.2259 3.166 68.2259 2.89C68.2259 2.518 68.1239 1.822 67.9199 0.801999L69.6839 0.405999ZM81.1096 0.405999C81.2056 0.849999 81.2776 1.294 81.3256 1.738C81.3856 2.17 81.4156 2.572 81.4156 2.944C81.4156 3.016 81.4096 3.088 81.3976 3.16C81.3976 3.232 81.3856 3.316 81.3616 3.412C81.4936 3.556 81.6436 3.664 81.8116 3.736C81.9796 3.808 82.1416 3.844 82.2976 3.844C82.6336 3.844 82.8916 3.748 83.0716 3.556C83.2516 3.364 83.3416 3.148 83.3416 2.908C83.3416 2.464 83.2456 1.762 83.0536 0.801999L84.7996 0.405999C84.8956 0.849999 84.9676 1.294 85.0156 1.738C85.0636 2.182 85.0876 2.596 85.0876 2.98C85.0876 3.388 85.0276 3.766 84.9076 4.114C84.7876 4.45 84.6136 4.744 84.3856 4.996C84.1696 5.248 83.8996 5.446 83.5756 5.59C83.2636 5.734 82.9156 5.806 82.5316 5.806C82.1956 5.806 81.8656 5.746 81.5416 5.626C81.2296 5.506 80.9296 5.296 80.6416 4.996C80.4136 5.26 80.1496 5.464 79.8496 5.608C79.5496 5.74 79.2016 5.806 78.8056 5.806C78.2656 5.806 77.8576 5.662 77.5816 5.374C77.6056 5.602 77.6236 5.842 77.6356 6.094C77.6476 6.334 77.6536 6.592 77.6536 6.868V11.098H75.8176V6.724C75.8176 6.004 75.7996 5.386 75.7636 4.87C75.7276 4.342 75.6736 3.868 75.6016 3.448C75.5296 3.028 75.4396 2.632 75.3316 2.26C75.2356 1.876 75.1276 1.468 75.0076 1.036L76.7536 0.405999C76.8616 0.825999 76.9576 1.204 77.0416 1.54C77.1376 1.876 77.2336 2.224 77.3296 2.584C77.3776 2.752 77.4316 2.914 77.4916 3.07C77.5516 3.226 77.6296 3.364 77.7256 3.484C77.8216 3.592 77.9356 3.682 78.0676 3.754C78.2116 3.814 78.3856 3.844 78.5896 3.844C78.9256 3.844 79.1836 3.754 79.3636 3.574C79.5556 3.394 79.6516 3.166 79.6516 2.89C79.6516 2.518 79.5496 1.822 79.3456 0.801999L81.1096 0.405999ZM90.5014 7.75C90.6214 7.09 90.7474 6.466 90.8794 5.878C91.0114 5.278 91.1794 4.684 91.3834 4.096C91.5874 3.496 91.8394 2.884 92.1394 2.26C92.4394 1.624 92.8174 0.94 93.2734 0.207999L94.8034 1.162C94.3474 1.942 93.9394 2.686 93.5794 3.394C93.2194 4.09 92.8954 4.822 92.6074 5.59C92.3194 6.346 92.0554 7.168 91.8154 8.056C91.5874 8.944 91.3654 9.958 91.1494 11.098H89.8714C89.6554 9.958 89.4274 8.944 89.1874 8.056C88.9474 7.168 88.6834 6.346 88.3954 5.59C88.1074 4.822 87.7834 4.09 87.4234 3.394C87.0754 2.686 86.6734 1.942 86.2174 1.162L87.7294 0.207999C88.1854 0.94 88.5634 1.624 88.8634 2.26C89.1634 2.884 89.4154 3.496 89.6194 4.096C89.8354 4.684 90.0094 5.278 90.1414 5.878C90.2734 6.466 90.3934 7.09 90.5014 7.75ZM101.042 6.508C100.526 6.508 100.022 6.448 99.5303 6.328C99.0503 6.196 98.6543 6.01 98.3423 5.77C98.3543 5.938 98.3603 6.118 98.3603 6.31C98.3723 6.49 98.3783 6.676 98.3783 6.868V11.098H96.5423V6.724C96.5423 6.004 96.5243 5.386 96.4883 4.87C96.4523 4.342 96.3983 3.868 96.3263 3.448C96.2543 3.028 96.1643 2.632 96.0563 2.26C95.9603 1.876 95.8523 1.468 95.7323 1.036L97.4783 0.405999C97.6343 0.945999 97.7603 1.438 97.8563 1.882C97.9643 2.314 98.0723 2.758 98.1803 3.214C98.2643 3.514 98.3663 3.754 98.4863 3.934C98.6183 4.114 98.8703 4.27 99.2423 4.402C99.0623 4.162 98.9543 3.922 98.9183 3.682C98.8823 3.43 98.8643 3.208 98.8643 3.016C98.8643 2.656 98.9363 2.314 99.0803 1.99C99.2363 1.654 99.4463 1.366 99.7103 1.126C99.9743 0.874 100.286 0.676 100.646 0.532C101.018 0.375999 101.414 0.297999 101.834 0.297999C102.134 0.297999 102.44 0.327999 102.752 0.387999C103.064 0.447999 103.418 0.555999 103.814 0.711999L103.274 2.512C102.938 2.392 102.668 2.314 102.464 2.278C102.26 2.23 102.05 2.206 101.834 2.206C101.462 2.206 101.15 2.32 100.898 2.548C100.658 2.764 100.538 3.052 100.538 3.412C100.538 3.76 100.64 4.048 100.844 4.276C101.06 4.492 101.318 4.6 101.618 4.6C101.978 4.6 102.338 4.552 102.698 4.456C103.058 4.348 103.436 4.216 103.832 4.06L104.3 5.716C103.652 6.016 103.07 6.226 102.554 6.346C102.05 6.454 101.546 6.508 101.042 6.508Z" fill="#616161"/>
</svg>
