<svg width="97" height="68" viewBox="0 0 97 68" fill="none" xmlns="http://www.w3.org/2000/svg">
<circle cx="77" cy="27" r="20" fill="#E6F4F1"/>
<circle cx="14.5" cy="49.5" r="14.5" fill="#E6F4F1"/>
<circle cx="63.5" cy="63.5" r="4.5" fill="#E6F4F1"/>
<g clip-path="url(#clip0_114_1654)">
<path d="M64.4375 1.92489C60.95 2.47489 57.8375 4.29989 55.6 7.09989C54.225 8.82489 53.375 10.5624 52.7875 12.8374C52.4875 14.0249 52.45 14.4249 52.4375 16.1249C52.4375 18.1374 52.575 18.9874 53.15 20.6624C53.4375 21.4999 54.1 22.8874 54.575 23.6499C54.7375 23.9124 54.875 24.1499 54.875 24.1874C54.875 24.2124 50.3625 24.2624 44.85 24.2749C35.3875 24.3124 34.7875 24.3249 34.475 24.5374C33.6625 25.0999 33.7 24.7874 33.625 31.8749L33.5625 38.3124L32.5875 40.2249C31.775 41.7874 31.5125 42.2124 31.1 42.5124C30.8125 42.7124 30.55 42.8749 30.5 42.8749C30.45 42.8749 30.3375 42.6249 30.2625 42.3249C30.0875 41.6249 29.5875 41.0249 28.9375 40.7374C28.5125 40.5374 28.1 40.4999 26.125 40.4999C24.1375 40.4999 23.7375 40.5374 23.3 40.7374C22.6625 41.0249 22.1875 41.6249 22 42.4124L21.85 42.9999H20.45C18.9125 42.9999 18.3375 43.1749 17.725 43.8249C17.2 44.3874 17 45.0124 17 46.0374C17 47.1749 17.2625 47.6249 17.9375 47.6249C18.5875 47.6249 18.875 47.1749 18.875 46.1749C18.875 44.9874 19.0375 44.8749 20.625 44.8749H21.875V51.3749V57.8749H20.5875C19.4875 57.8749 19.2625 57.8374 19.0875 57.6499C18.9 57.4499 18.875 56.9874 18.875 53.8249C18.875 51.7624 18.825 50.1374 18.75 50.0124C18.5625 49.6499 17.95 49.4499 17.6 49.6374C17.0125 49.9499 17.0125 49.9749 17 53.9374C17 57.6374 17 57.6999 17.3 58.3374C17.5125 58.7874 17.775 59.0874 18.1375 59.3374C18.6375 59.6624 18.7625 59.6874 20.275 59.7249C21.3875 59.7624 21.875 59.8124 21.875 59.9124C21.875 60.7374 22.6875 61.8749 23.475 62.1499C23.9875 62.3249 28.0625 62.3874 28.65 62.2249C29.0625 62.0999 29.7125 61.5624 30 61.0999L30.2125 60.7374L50.45 60.7499C69.525 60.7499 70.7125 60.7374 71.125 60.5374C71.3625 60.4124 71.6875 60.1249 71.8375 59.8874L72.125 59.4624V44.3749V29.2999L72.8 29.0124C74.5 28.3124 76.825 26.4624 78.0625 24.8124C83.4375 17.6624 81.1375 7.31239 73.2875 3.37489C72.7375 3.09989 72.1125 2.87489 71.9 2.87489C71.2375 2.87489 70.825 3.53739 71.075 4.18739C71.125 4.29989 71.5 4.56239 71.925 4.77489C77.05 7.33739 79.7625 12.3999 78.9875 17.9624C78.3125 22.8124 74.525 26.8999 69.55 28.1499C67.975 28.5499 65.025 28.5374 63.5625 28.1499C60.1375 27.2124 57.2125 24.7999 55.6 21.5624C54.5375 19.4374 54.1125 17.1124 54.3625 14.8124C54.7 11.8374 55.975 9.21239 58.1 7.14989C60.5625 4.76239 63.775 3.56239 67.4375 3.64989C68.875 3.68739 69.0625 3.61239 69.2 2.92489C69.3 2.39989 68.95 1.99989 68.25 1.86239C67.4625 1.71239 65.6125 1.74989 64.4375 1.92489ZM43.75 30.4249C43.75 32.7124 43.7875 34.7624 43.825 34.9874C43.925 35.4374 44.4 35.9624 44.7875 36.0249C45.325 36.1124 45.7875 35.8749 47.375 34.6249C48.2625 33.9374 49.075 33.3374 49.175 33.2999C49.3 33.2499 49.8875 33.6374 50.775 34.3374C51.55 34.9499 52.375 35.5749 52.6 35.7374C53.35 36.2624 54.3375 36.0124 54.6125 35.2249C54.7 34.9749 54.75 33.2874 54.75 30.5499V26.2499H55.7H56.65L57.3625 26.8499C58.7875 28.0749 60.525 29.0874 62.1625 29.6124L63 29.8999V33.6374C63 37.2124 63.0125 37.3874 63.25 37.6249C63.5875 37.9624 64.2625 37.9499 64.575 37.6124C64.8 37.3749 64.8125 37.0874 64.85 33.8124L64.8875 30.2749L66.1 30.3374C67.175 30.3999 68.225 30.3124 69.7875 30.0499L70.25 29.9624V44.4249V58.8749H67.5625H64.875V49.6999C64.875 40.6124 64.875 40.5249 64.6125 40.1999C64.2875 39.7874 63.625 39.7499 63.25 40.1249C63 40.3749 63 40.5374 63 49.6249V58.8749H55.6625H48.3125V57.8124V56.7499H50.2625C52.375 56.7499 52.7625 56.6624 53.4875 56.0499C54.075 55.5624 54.4125 54.8124 54.425 53.9999C54.4375 53.6249 54.3875 53.1874 54.3375 53.0374C54.25 52.7999 54.3125 52.7249 54.7375 52.5124C55.6375 52.0499 56.15 51.1499 56.15 49.9874C56.15 49.1749 55.8625 48.5124 55.225 47.9124C54.6625 47.3624 54.025 47.1249 53.1625 47.1249H52.425L52.4375 46.1499C52.4375 45.0874 52.2875 44.7124 51.6375 44.0499C50.7625 43.1624 50.9875 43.1874 44.1 43.1499L37.9 43.1124L38.475 41.9624C39.05 40.8499 39.0625 40.7874 39.0625 39.6874C39.0625 38.6749 39.025 38.4999 38.6875 37.8874C38.075 36.7874 37.0125 36.0374 36.0375 36.0124L35.625 35.9999V31.1249V26.2499H39.6875H43.75V30.4249ZM52.875 29.8749C52.875 31.8624 52.85 33.4999 52.8125 33.4999C52.775 33.4999 52.225 33.0874 51.575 32.5749C49.7375 31.0999 49.35 30.9249 48.7125 31.2749C48.5625 31.3499 47.8375 31.8874 47.1 32.4624C46.375 33.0249 45.7375 33.4999 45.7 33.4999C45.6625 33.4999 45.625 31.8624 45.625 29.8749V26.2499H49.25H52.875V29.8749ZM36.475 38.0749C36.875 38.3499 37.25 39.1624 37.25 39.7249C37.25 40.0499 37.05 40.6249 36.625 41.4874C35.9125 42.9499 35.825 43.5499 36.275 44.1999C36.8 44.9624 36.4875 44.9374 43.5375 44.9999L50.025 45.0624L50.325 45.4124C50.7 45.8624 50.7 46.2624 50.325 46.7124L50.025 47.0624L45.875 47.1249C41.95 47.1874 41.725 47.1999 41.55 47.4249C41.2875 47.7874 41.325 48.4249 41.6375 48.6999C41.8875 48.9249 42.225 48.9374 47.8125 48.9999C53.4 49.0624 53.7375 49.0749 53.9875 49.2999C54.1625 49.4624 54.25 49.6874 54.25 49.9874C54.2375 51.0249 54.3625 50.9999 47.6875 50.9999H41.8625L41.5625 51.3124C41.3875 51.4749 41.25 51.7624 41.25 51.9374C41.25 52.1124 41.3875 52.3999 41.5625 52.5624L41.8625 52.8749H46.875H51.9L52.2625 53.2374C52.4625 53.4374 52.625 53.6999 52.625 53.8124C52.625 54.1749 52.25 54.7499 51.9625 54.8124C51.8125 54.8499 49.25 54.8874 46.275 54.9124L40.85 54.9374L40.6125 55.2374C40.3375 55.5874 40.3 56.0999 40.55 56.4499C40.7125 56.6624 40.9375 56.6874 43.3125 56.7499L45.9 56.8124L46.2 57.1624C46.575 57.6124 46.575 58.0124 46.2 58.4624L45.9 58.8124H38.475C34.4 58.8124 30.9125 58.7749 30.7125 58.7124L30.375 58.6249V51.7624V44.8999L30.85 44.7499C32.45 44.2249 33.05 43.5249 34.7625 40.0874C35.675 38.2624 35.9125 37.8874 36.125 37.8749C36.1625 37.8749 36.325 37.9624 36.475 38.0749ZM28.3 42.5749C28.475 42.7499 28.5 43.7249 28.5 51.4249C28.5 57.9874 28.4625 60.1124 28.35 60.2249C28.25 60.3249 27.5625 60.3749 26.1 60.3749C24.1625 60.3749 24 60.3624 23.875 60.1374C23.8 59.9749 23.75 56.9874 23.75 51.3249C23.75 43.7124 23.775 42.7499 23.95 42.5749C24.2375 42.2749 28.0125 42.2749 28.3 42.5749Z" fill="#005C6D"/>
<path d="M72.9625 10.3998C72.7875 10.5623 71 12.5373 68.9875 14.8123C66.975 17.0748 65.0875 19.1998 64.7875 19.5248L64.25 20.1123L62.25 17.8623C60.3875 15.7873 60.2 15.6248 59.8125 15.6248C59.3 15.6248 58.875 16.0248 58.875 16.5123C58.875 16.8873 58.9375 16.9748 61.4 19.7623C62.35 20.8373 63.2625 21.7748 63.4375 21.8498C63.975 22.0998 64.7875 22.0373 65.2375 21.7123C65.4625 21.5623 67.6375 19.1998 70.075 16.4498C74.025 11.9998 74.5 11.4248 74.5 11.0498C74.5 10.2123 73.5875 9.82481 72.9625 10.3998Z" fill="#005C6D"/>
<circle cx="23" cy="16" r="6" fill="#E6F4F1"/>
</g>
<defs>
<clipPath id="clip0_114_1654">
<rect width="64" height="64" fill="white" transform="translate(17)"/>
</clipPath>
</defs>
</svg>
