<svg width="97" height="67" viewBox="0 0 97 67" fill="none" xmlns="http://www.w3.org/2000/svg">
<circle cx="77" cy="26" r="20" fill="#E6F4F1"/>
<circle cx="14.5" cy="48.5" r="14.5" fill="#E6F4F1"/>
<circle cx="16" cy="15" r="6" fill="#E6F4F1"/>
<circle cx="63.5" cy="62.5" r="4.5" fill="#E6F4F1"/>
<g clip-path="url(#clip0_127_1762)">
<path d="M22.5626 11.925C22.0501 12.1625 21.5251 12.75 21.3751 13.2625C21.1876 13.9125 21.2126 32.0625 21.4001 32.4125C21.7376 33.0625 22.4376 33.1875 22.9376 32.6875L23.2501 32.3875V23.0625V13.75H42.5626H61.8751V22.95C61.8751 29.7 61.9126 32.2125 62.0251 32.4125C62.3626 33.0625 63.0626 33.1875 63.5626 32.6875C63.8251 32.4375 63.8751 32.2625 63.8751 31.625V30.875H70.0376C73.7751 30.875 76.3626 30.925 76.6376 31C77.2751 31.175 77.8626 31.6 78.3376 32.225C79.0126 33.1125 78.9876 33.125 77.0626 33.125C75.4251 33.125 75.3501 33.1375 75.0626 33.4375C74.7626 33.725 74.7501 33.8125 74.7501 35.2625C74.7501 37.1875 74.8876 37.6375 75.6876 38.4375C76.4126 39.175 76.9626 39.375 78.1751 39.375H79.0001V41.625V43.875H77.7126H76.4251L76.0376 43.0875C73.7251 38.425 67.0126 38.4375 64.7126 43.1C64.4501 43.6125 64.2501 43.875 64.1251 43.85C63.9626 43.8125 63.9251 43.25 63.8751 39.7875C63.8126 35.3625 63.8251 35.4625 63.0376 35.3C62.7001 35.2375 62.5751 35.2875 62.2501 35.6L61.8751 35.975V39.925V43.875H51.5001H41.1376L40.8751 43.2875C39.7751 40.7875 36.9751 39.2375 34.2251 39.625C32.2501 39.9 30.2626 41.3375 29.4376 43.1L29.0626 43.875L26.1876 43.85L23.3126 43.8125V42.6875V41.5625L25.7126 41.525L28.1126 41.5L28.3626 41.1625C28.7126 40.7375 28.6876 40.3375 28.3251 39.9125L28.0251 39.5625H22.8126H17.6001L17.3001 39.9125C16.9376 40.3375 16.9126 40.7375 17.2626 41.175L17.5126 41.5H19.3876H21.2501V42.775C21.2501 43.75 21.3126 44.1875 21.4876 44.5625C22.0251 45.7375 22.4626 45.8625 25.9376 45.875H28.6876L28.8501 46.8375C29.6876 52.1125 36.2251 54.0625 39.8001 50.1125C40.5126 49.325 41.2251 47.8875 41.3251 47.0375C41.3626 46.7125 41.4126 46.3125 41.4501 46.15L41.5001 45.875H52.7251H63.9501L64.1376 46.9C64.4001 48.25 64.8626 49.2125 65.7001 50.125C67.0751 51.6 68.3626 52.1625 70.3751 52.1625C72.3876 52.1625 73.6751 51.6 75.0501 50.125C75.9001 49.1875 76.3501 48.3 76.6001 46.95L76.8001 45.8875L78.6001 45.85L80.4001 45.8125L80.7001 45.45L81.0126 45.1L80.9751 39.0125C80.9376 33.1 80.9251 32.925 80.6626 32.275C80.0501 30.775 78.6376 29.4625 77.2376 29.1125C76.8126 29 76.5626 28.8625 76.4876 28.6875C76.4251 28.55 76.0376 27.075 75.6251 25.4L74.8751 22.3625L75.2626 22.0375L75.6501 21.7L75.6001 20.3875C75.5626 19.25 75.5001 18.975 75.2126 18.4C74.8001 17.625 74.0751 16.85 73.4126 16.525C72.5251 16.075 71.7251 16 67.7501 16H63.9001L63.8501 14.525C63.8126 13.2125 63.7751 13.0125 63.5126 12.6375C63.3501 12.4125 62.9876 12.1125 62.7001 11.9875C62.2126 11.7625 61.4376 11.75 42.5626 11.7625C26.4376 11.7625 22.8751 11.7875 22.5626 11.925ZM72.4626 18.275C73.0001 18.575 73.5001 19.25 73.5876 19.8L73.6626 20.25H68.7626H63.8751V19.1125V17.9875L67.9751 18.025C71.5876 18.0625 72.1126 18.0875 72.4626 18.275ZM73.6001 25.525C74.0251 27.2625 74.3751 28.725 74.3751 28.775C74.3751 28.8375 72.0126 28.875 69.1251 28.875H63.8751V25.625V22.375H68.3501H72.8126L73.6001 25.525ZM79.0001 36.25V37.375H78.2001C77.5126 37.375 77.3626 37.3375 77.0751 37.05C76.7876 36.7625 76.7501 36.6125 76.7501 35.925V35.125H77.8751H79.0001V36.25ZM36.0626 41.6875C37.1501 41.8625 38.4126 42.8625 38.9876 43.975C39.5501 45.0625 39.5501 46.675 38.9876 47.7625C37.3376 51.025 32.8251 51.025 31.2251 47.775C30.8501 47.025 30.8126 46.8375 30.8126 45.875C30.8251 44.975 30.8751 44.7 31.1626 44.1C31.7751 42.8375 33.0501 41.85 34.3626 41.625C34.9376 41.525 35.1126 41.5375 36.0626 41.6875ZM71.0626 41.6375C72.9876 41.9875 74.4501 43.525 74.6876 45.4375C74.8501 46.7375 74.1501 48.4375 73.1251 49.25C70.6001 51.25 66.9751 50.0125 66.1751 46.8875C65.5751 44.525 67.2126 42.05 69.6501 41.6375C70.0126 41.575 70.3126 41.525 70.3251 41.5125C70.3251 41.5125 70.6626 41.5625 71.0626 41.6375Z" fill="#005C6D"/>
<path d="M34.0251 44.1125C32.5001 45.075 32.8376 47.35 34.6001 47.8875C35.6001 48.1875 36.8876 47.425 37.0751 46.425C37.3376 44.9875 36.5876 43.9875 35.1876 43.9C34.6001 43.875 34.3501 43.9125 34.0251 44.1125Z" fill="#005C6D"/>
<path d="M69.3875 44.0876C68.15 44.7001 67.975 46.6251 69.075 47.4876C69.9375 48.1626 71.05 48.1001 71.825 47.3251C72.5375 46.6126 72.625 45.5001 72.0125 44.6501C71.5 43.9126 70.275 43.6501 69.3875 44.0876Z" fill="#005C6D"/>
<path d="M46.1002 25.9625L41.5002 30.5625L39.0877 28.1625C37.5627 26.6375 36.5627 25.7375 36.3377 25.675C35.6377 25.5125 34.9752 26.325 35.2502 27C35.3252 27.1875 36.6752 28.6125 38.2377 30.175C40.8252 32.75 41.1252 33 41.5127 33C41.9002 33 42.3252 32.6125 47.0252 27.9C51.6752 23.2625 52.1252 22.775 52.1252 22.4C52.1252 21.85 51.6502 21.375 51.1127 21.375C50.7377 21.375 50.2502 21.825 46.1002 25.9625Z" fill="#005C6D"/>
<path d="M19.4875 35.6125C19.0375 36.0625 19.025 36.525 19.4375 36.9375L19.7375 37.25H26.4875C30.2 37.25 33.325 37.2125 33.4375 37.175C33.6625 37.0875 34 36.4875 34 36.1875C34 36.075 33.8375 35.8125 33.6375 35.6125L33.275 35.25H26.5625H19.85L19.4875 35.6125Z" fill="#005C6D"/>
<path d="M43.2876 39.625C42.8626 39.8 42.5876 40.3 42.6876 40.75C42.8626 41.525 42.5251 41.5 51.2001 41.5H59.1126L59.3626 41.175C59.7126 40.7375 59.6876 40.3375 59.3251 39.9125L59.0251 39.5625L51.2876 39.5375C46.9751 39.525 43.4376 39.5625 43.2876 39.625Z" fill="#005C6D"/>
</g>
<defs>
<clipPath id="clip0_127_1762">
<rect width="64" height="64" fill="white" transform="translate(17)"/>
</clipPath>
</defs>
</svg>
