<svg width="32" height="32" viewBox="0 0 32 32" fill="none" xmlns="http://www.w3.org/2000/svg">
<path d="M29.6862 3.23704C29.3065 2.92122 28.8484 2.71423 28.3605 2.63811C27.8726 2.56199 27.3731 2.61958 26.9153 2.80476L3.0208 12.4519C2.5098 12.6621 2.07482 13.0228 1.7736 13.486C1.47238 13.9493 1.31916 14.4932 1.33427 15.0455C1.34939 15.5979 1.53213 16.1326 1.85824 16.5786C2.18434 17.0247 2.6384 17.3611 3.16013 17.543L7.99346 19.224L10.6875 28.1329C10.7241 28.2519 10.7772 28.3652 10.8453 28.4694C10.8556 28.4854 10.8702 28.4973 10.8812 28.5129C10.9599 28.6226 11.055 28.7196 11.1631 28.8005C11.1939 28.824 11.2233 28.8459 11.2562 28.8668C11.3828 28.9508 11.523 29.0122 11.6705 29.0483L11.6863 29.0496L11.6952 29.0534C11.784 29.0715 11.8742 29.0806 11.9648 29.0808C11.9735 29.0808 11.9812 29.0766 11.9898 29.0764C12.1265 29.0741 12.2619 29.0505 12.3913 29.0067C12.4214 28.9964 12.4472 28.9793 12.4764 28.9669C12.5729 28.9269 12.6643 28.8756 12.7488 28.8142C12.8164 28.7572 12.8841 28.7002 12.9518 28.6433L16.5546 24.6654L21.9283 28.8282C22.4014 29.1965 22.9837 29.3967 23.5833 29.3972C24.2115 29.3964 24.8204 29.1796 25.3078 28.7832C25.7952 28.3868 26.1315 27.835 26.2604 27.2201L30.6106 5.86465C30.7092 5.38401 30.6753 4.88561 30.5124 4.42277C30.3496 3.95993 30.064 3.55007 29.6862 3.23704V3.23704ZM12.4935 19.6485C12.3086 19.8326 12.1822 20.0673 12.1302 20.323L11.7175 22.3283L10.6721 18.8709L16.0924 16.0483L12.4935 19.6485ZM23.5625 26.7201L17.2122 21.8008C16.9465 21.5955 16.6133 21.4979 16.2788 21.5273C15.9443 21.5567 15.6332 21.7111 15.4075 21.9597L14.2536 23.2333L14.6614 21.2513L24.1054 11.8073C24.3308 11.5822 24.4682 11.2838 24.4926 10.9661C24.517 10.6485 24.4268 10.3326 24.2384 10.0757C24.0499 9.81885 23.7758 9.63794 23.4655 9.56577C23.1552 9.4936 22.8293 9.53494 22.5468 9.68232L8.99313 16.7392L4.02732 14.9219L27.9986 5.33207L23.5625 26.7201Z" fill="#1CA6AB"/>
</svg>
