<svg width="32" height="32" viewBox="0 0 32 32" fill="none" xmlns="http://www.w3.org/2000/svg">
<g clip-path="url(#clip0_119_1678)">
<path d="M23.2243 19.1747C22.829 18.9762 20.8798 18.016 20.5165 17.8848C20.1532 17.7519 19.8892 17.6863 19.6251 18.0832C19.361 18.4785 18.6009 19.3731 18.3688 19.6372C18.1384 19.9012 17.9063 19.9332 17.511 19.7348C16.3429 19.2697 15.2646 18.6047 14.3247 17.7695C13.4579 16.9683 12.7147 16.0428 12.1195 15.0233C11.889 14.6265 12.0954 14.412 12.2939 14.2152C12.4715 14.0375 12.6908 13.7527 12.8876 13.5206C13.0507 13.3203 13.1843 13.0977 13.2845 12.8597C13.3372 12.7503 13.3618 12.6294 13.3559 12.5081C13.3501 12.3868 13.314 12.2689 13.2509 12.1651C13.1517 11.9667 12.3595 10.0158 12.0298 9.22207C11.7082 8.4507 11.3817 8.55473 11.1368 8.54192C10.9064 8.53072 10.6423 8.52752 10.3783 8.52752C10.1774 8.53312 9.97987 8.58023 9.79809 8.66589C9.61632 8.75154 9.45423 8.87389 9.32204 9.02523C8.87398 9.44954 8.51921 9.96252 8.28032 10.5315C8.04144 11.1005 7.92367 11.713 7.93454 12.33C8.06304 13.8251 8.62538 15.2501 9.55249 16.4301C11.2519 18.9779 13.5848 21.0399 16.322 22.4138C17.0603 22.731 17.8146 23.0098 18.5817 23.2491C19.3904 23.4947 20.2453 23.5478 21.0782 23.4044C21.6299 23.2926 22.1523 23.0677 22.6126 22.7437C23.0729 22.4198 23.461 22.0039 23.7524 21.5224C24.0124 20.9301 24.0925 20.2746 23.9829 19.6372C23.8852 19.4707 23.6212 19.3731 23.2243 19.1747V19.1747ZM27.2124 4.64507C24.4917 1.92504 20.8753 0.286372 17.0364 0.0341491C13.1975 -0.218074 9.39774 0.933336 6.34456 3.27401C3.29139 5.61469 1.19283 8.98513 0.439606 12.7578C-0.313622 16.5305 0.329803 20.4484 2.25009 23.7821L0 31.9998L8.40824 29.7962C10.7338 31.0625 13.3395 31.726 15.9875 31.7262H15.9939C19.1307 31.7246 22.1967 30.7933 24.8045 29.0499C27.4123 27.3066 29.4448 24.8294 30.6453 21.9314C31.8458 19.0334 32.1605 15.8445 31.5494 12.7678C30.9384 9.69103 29.4292 6.86441 27.2124 4.64505V4.64507ZM22.9986 27.0324C20.8992 28.3483 18.4717 29.0466 15.9939 29.0472H15.9875C13.6268 29.0471 11.3097 28.4119 9.27883 27.2084L8.79713 26.9235L3.80723 28.2326L5.13873 23.3676L4.82666 22.8682C3.44163 20.6595 2.74265 18.0897 2.81812 15.4837C2.89358 12.8777 3.7401 10.3526 5.25062 8.22773C6.76115 6.10284 8.86784 4.47358 11.3043 3.54597C13.7408 2.61837 16.3976 2.43407 18.9388 3.01639C21.48 3.59871 23.7915 4.92149 25.5809 6.81746C27.3704 8.71344 28.5574 11.0975 28.992 13.6681C29.4265 16.2387 29.0891 18.8804 28.0223 21.2592C26.9555 23.638 25.2072 25.6471 22.9986 27.0324" fill="#1CA6AB"/>
</g>
<defs>
<clipPath id="clip0_119_1678">
<rect width="31.8534" height="32" fill="white"/>
</clipPath>
</defs>
</svg>
