<svg width="34" height="33" viewBox="0 0 34 33" fill="none" xmlns="http://www.w3.org/2000/svg">
<path d="M28.6362 31.9998C29.4395 31.9998 30.0907 31.3397 30.0907 30.5255C30.0907 29.7113 29.4395 29.0513 28.6362 29.0513C27.8329 29.0513 27.1816 29.7113 27.1816 30.5255C27.1816 31.3397 27.8329 31.9998 28.6362 31.9998Z" stroke="#616161" stroke-width="2" stroke-linecap="round" stroke-linejoin="round"/>
<path d="M12.6362 31.9998C13.4395 31.9998 14.0907 31.3397 14.0907 30.5255C14.0907 29.7113 13.4395 29.0513 12.6362 29.0513C11.8329 29.0513 11.1816 29.7113 11.1816 30.5255C11.1816 31.3397 11.8329 31.9998 12.6362 31.9998Z" stroke="#616161" stroke-width="2" stroke-linecap="round" stroke-linejoin="round"/>
<path d="M1 1.04053H6.81818L10.7164 20.7808C10.8494 21.4595 11.2137 22.0692 11.7455 22.5032C12.2774 22.9371 12.9428 23.1676 13.6255 23.1543H27.7636C28.4463 23.1676 29.1117 22.9371 29.6436 22.5032C30.1754 22.0692 30.5397 21.4595 30.6727 20.7808L33 8.4118H8.27273" stroke="#616161" stroke-width="2" stroke-linecap="round" stroke-linejoin="round"/>
</svg>
