<svg width="34" height="35" viewBox="0 0 34 35" fill="none" xmlns="http://www.w3.org/2000/svg">
<path d="M28.6362 34.0003C29.4395 34.0003 30.0907 33.3402 30.0907 32.526C30.0907 31.7118 29.4395 31.0518 28.6362 31.0518C27.8329 31.0518 27.1816 31.7118 27.1816 32.526C27.1816 33.3402 27.8329 34.0003 28.6362 34.0003Z" stroke="#616161" stroke-width="2" stroke-linecap="round" stroke-linejoin="round"/>
<path d="M12.6362 34.0003C13.4395 34.0003 14.0907 33.3402 14.0907 32.526C14.0907 31.7118 13.4395 31.0518 12.6362 31.0518C11.8329 31.0518 11.1816 31.7118 11.1816 32.526C11.1816 33.3402 11.8329 34.0003 12.6362 34.0003Z" stroke="#616161" stroke-width="2" stroke-linecap="round" stroke-linejoin="round"/>
<path d="M1 3.04102H6.81818L10.7164 22.7813C10.8494 23.46 11.2137 24.0697 11.7455 24.5037C12.2774 24.9376 12.9428 25.1681 13.6255 25.1548H27.7636C28.4463 25.1681 29.1117 24.9376 29.6436 24.5037C30.1754 24.0697 30.5397 23.46 30.6727 22.7813L33 10.4123H8.27273" stroke="#616161" stroke-width="2" stroke-linecap="round" stroke-linejoin="round"/>
</svg>
