<svg width="34" height="33" viewBox="0 0 34 33" fill="none" xmlns="http://www.w3.org/2000/svg">
<path d="M28.6364 32C29.4398 32 30.091 31.34 30.091 30.5258C30.091 29.7116 29.4398 29.0515 28.6364 29.0515C27.8331 29.0515 27.1819 29.7116 27.1819 30.5258C27.1819 31.34 27.8331 32 28.6364 32Z" stroke="#616161" stroke-width="2" stroke-linecap="round" stroke-linejoin="round"/>
<path d="M12.6364 32C13.4398 32 14.091 31.34 14.091 30.5258C14.091 29.7116 13.4398 29.0515 12.6364 29.0515C11.8331 29.0515 11.1819 29.7116 11.1819 30.5258C11.1819 31.34 11.8331 32 12.6364 32Z" stroke="#616161" stroke-width="2" stroke-linecap="round" stroke-linejoin="round"/>
<path d="M1 1.04065H6.81818L10.7164 20.7809C10.8494 21.4597 11.2137 22.0694 11.7455 22.5033C12.2774 22.9372 12.9428 23.1677 13.6255 23.1545H27.7636C28.4463 23.1677 29.1117 22.9372 29.6436 22.5033C30.1754 22.0694 30.5397 21.4597 30.6727 20.7809L33 8.41192H8.27273" stroke="#616161" stroke-width="2" stroke-linecap="round" stroke-linejoin="round"/>
</svg>
