<svg width="32" height="32" viewBox="0 0 32 32" fill="none" xmlns="http://www.w3.org/2000/svg">
<path fill-rule="evenodd" clip-rule="evenodd" d="M4 8.66667C4 5.16638 4.03748 4 8.66667 4C13.2959 4 13.3333 5.16638 13.3333 8.66667C13.3333 12.167 13.3481 13.3333 8.66667 13.3333C3.98524 13.3333 4 12.167 4 8.66667Z" fill="white" stroke="#1CA6AB" stroke-width="1.5" stroke-linecap="round" stroke-linejoin="round"/>
<path fill-rule="evenodd" clip-rule="evenodd" d="M18.6665 8.66667C18.6665 5.16638 18.704 4 23.3332 4C27.9624 4 27.9998 5.16638 27.9998 8.66667C27.9998 12.167 28.0146 13.3333 23.3332 13.3333C18.6517 13.3333 18.6665 12.167 18.6665 8.66667Z" fill="white" stroke="#1CA6AB" stroke-width="1.5" stroke-linecap="round" stroke-linejoin="round"/>
<path fill-rule="evenodd" clip-rule="evenodd" d="M4 23.3332C4 19.8329 4.03748 18.6665 8.66667 18.6665C13.2959 18.6665 13.3333 19.8329 13.3333 23.3332C13.3333 26.8335 13.3481 27.9998 8.66667 27.9998C3.98524 27.9998 4 26.8335 4 23.3332Z" fill="white" stroke="#1CA6AB" stroke-width="1.5" stroke-linecap="round" stroke-linejoin="round"/>
<path fill-rule="evenodd" clip-rule="evenodd" d="M18.6665 23.3332C18.6665 19.8329 18.704 18.6665 23.3332 18.6665C27.9624 18.6665 27.9998 19.8329 27.9998 23.3332C27.9998 26.8335 28.0146 27.9998 23.3332 27.9998C18.6517 27.9998 18.6665 26.8335 18.6665 23.3332Z" fill="white" stroke="#1CA6AB" stroke-width="1.5" stroke-linecap="round" stroke-linejoin="round"/>
</svg>
