<svg width="24" height="25" viewBox="0 0 24 25" fill="none" xmlns="http://www.w3.org/2000/svg">
<path d="M17 9.66994C16.8126 9.48369 16.5592 9.37915 16.295 9.37915C16.0308 9.37915 15.7774 9.48369 15.59 9.66994L12 13.2099L8.45999 9.66994C8.27263 9.48369 8.01918 9.37915 7.75499 9.37915C7.49081 9.37915 7.23736 9.48369 7.04999 9.66994C6.95627 9.76291 6.88187 9.87351 6.8311 9.99537C6.78033 10.1172 6.7542 10.2479 6.7542 10.3799C6.7542 10.512 6.78033 10.6427 6.8311 10.7645C6.88187 10.8864 6.95627 10.997 7.04999 11.0899L11.29 15.3299C11.383 15.4237 11.4936 15.4981 11.6154 15.5488C11.7373 15.5996 11.868 15.6257 12 15.6257C12.132 15.6257 12.2627 15.5996 12.3846 15.5488C12.5064 15.4981 12.617 15.4237 12.71 15.3299L17 11.0899C17.0937 10.997 17.1681 10.8864 17.2189 10.7645C17.2697 10.6427 17.2958 10.512 17.2958 10.3799C17.2958 10.2479 17.2697 10.1172 17.2189 9.99537C17.1681 9.87351 17.0937 9.76291 17 9.66994Z" fill="#1CA6AB"/>
</svg>
