<svg width="130" height="80" viewBox="0 0 130 80" fill="none" xmlns="http://www.w3.org/2000/svg">
<mask id="path-1-inside-1_651_5029" fill="white">
<path fill-rule="evenodd" clip-rule="evenodd" d="M65 62C98.1371 62 125 35.1371 125 2C125 1.33072 124.989 0.663994 124.967 0H130V80H0V0H5.03271C5.01096 0.663994 5 1.33072 5 2C5 35.1371 31.8629 62 65 62Z"/>
</mask>
<path fill-rule="evenodd" clip-rule="evenodd" d="M65 62C98.1371 62 125 35.1371 125 2C125 1.33072 124.989 0.663994 124.967 0H130V80H0V0H5.03271C5.01096 0.663994 5 1.33072 5 2C5 35.1371 31.8629 62 65 62Z" fill="white"/>
<path d="M124.967 0V-1H123.934L123.968 0.0327294L124.967 0ZM130 0H131V-1H130V0ZM130 80V81H131V80H130ZM0 80H-1V81H0V80ZM0 0V-1H-1V0H0ZM5.03271 0L6.03217 0.0327344L6.06599 -1H5.03271V0ZM124 2C124 34.5848 97.5848 61 65 61V63C98.6894 63 126 35.6894 126 2H124ZM123.968 0.0327294C123.989 0.685827 124 1.34164 124 2H126C126 1.3198 125.989 0.642161 125.967 -0.0327294L123.968 0.0327294ZM124.967 1H130V-1H124.967V1ZM129 0V80H131V0H129ZM130 79H0V81H130V79ZM1 80V0H-1V80H1ZM0 1H5.03271V-1H0V1ZM6 2C6 1.34163 6.01078 0.685823 6.03217 0.0327344L4.03324 -0.0327344C4.01114 0.642165 4 1.3198 4 2H6ZM65 61C32.4152 61 6 34.5848 6 2H4C4 35.6894 31.3106 63 65 63V61Z" fill="white" mask="url(#path-1-inside-1_651_5029)"/>
</svg>
