<svg width="40" height="18" viewBox="0 0 40 18" fill="none" xmlns="http://www.w3.org/2000/svg">
<path fill-rule="evenodd" clip-rule="evenodd" d="M4.21258 14.2269C4.20063 14.2277 4.18904 14.2292 4.17709 14.2299C4.07568 14.2389 3.97428 14.2431 3.87287 14.2446L3.86056 14.2449L3.84825 14.2446C3.74684 14.2431 3.64544 14.2389 3.54404 14.2299C2.7462 14.1599 1.99436 13.8371 1.38086 13.3044C-0.253192 11.8849 -0.468316 9.33703 0.903178 7.64571C1.63836 6.73857 2.7165 6.21116 3.86056 6.21116H8.67871L8.67908 6.21078H10.6749C11.7201 6.21078 12.711 6.65123 13.4349 7.42004V6.02373L18.0528 0.327509C18.2947 0.0283796 18.6736 -0.0762048 19.0274 0.0568686C19.3816 0.190317 19.6061 0.522432 19.6061 0.912652V3.45601L17.3727 6.21078H23.3563C24.5003 6.21078 25.5781 6.7382 26.3136 7.64533C26.9127 8.38416 27.2143 9.27143 27.2219 10.2337C27.2237 10.4623 27.3201 10.6745 27.4892 10.8214C27.616 10.9316 27.7713 10.9946 27.9365 11.0017H28.9737H28.9875C29.1711 11.0077 29.35 10.9433 29.4905 10.8211C29.8056 10.547 29.8472 10.0564 29.5825 9.72987C29.4409 9.55482 29.2359 9.45548 29.0161 9.45324L28.1324 9.44461V6.20591L29.0295 6.21116C30.1721 6.21753 31.2473 6.73932 31.9821 7.64533C32.1151 7.80952 32.2331 7.98195 32.3367 8.16038C33.0154 6.99235 34.2518 6.21116 35.6646 6.21116C37.8075 6.21116 39.5455 8.00969 39.5455 10.2281C39.5455 11.0565 39.2999 11.8605 38.8392 12.5383C38.7194 12.7148 38.5846 12.8749 38.4506 13.0402L34.8928 17.4278C34.6505 17.7266 34.2721 17.8315 33.9179 17.6981C33.5637 17.5642 33.3391 17.2321 33.3391 16.8423V14.3L33.6202 13.9537L32.629 12.7305L32.621 12.7204C32.5167 12.584 32.4214 12.4419 32.336 12.2946C32.1205 12.6676 31.8427 13.0106 31.5041 13.3044C31.2506 13.5249 30.9728 13.7093 30.678 13.8551C31.0423 14.2674 31.2647 14.8166 31.2647 15.419C31.2647 16.6995 30.2612 17.7378 29.0244 17.7378C27.7876 17.7378 26.7844 16.6995 26.7844 15.419C26.7844 14.9527 26.9177 14.5178 27.1473 14.1542C26.6077 14.0335 26.1 13.7948 25.6549 13.4518C25.0776 13.8967 24.3935 14.1662 23.6728 14.23C23.5163 14.2438 23.3613 14.2449 23.2045 14.2449H22.5914H16.0899H15.5789C15.467 14.2449 15.3555 14.2468 15.2439 14.2449C15.0016 14.2442 14.809 14.2225 14.5703 14.176C13.9898 14.0635 13.4454 13.8154 12.9735 13.4518C12.3959 13.8967 11.7121 14.1662 10.9911 14.23C10.835 14.2438 10.6796 14.2449 10.5232 14.2449H9.91005H4.19809L4.21257 14.227L4.21258 14.2269ZM29.0244 14.0242C29.769 14.0242 30.372 14.6487 30.372 15.419C30.372 16.1897 29.769 16.8142 29.0244 16.8142C28.2802 16.8142 27.6768 16.1897 27.6768 15.419C27.6768 14.6487 28.2802 14.0242 29.0244 14.0242ZM3.86056 11.9261C4.22779 11.9227 4.59683 11.7923 4.90032 11.5288C5.28058 11.1982 5.47941 10.7274 5.48593 10.2505V9.25944H6.83352V10.0365V10.1891C6.83352 10.2228 6.83352 10.2558 6.83279 10.2892C6.81613 11.1502 6.45397 12 5.7666 12.5971C5.27696 13.0226 4.69316 13.2576 4.10103 13.3097C4.02027 13.3168 3.94059 13.3198 3.86056 13.3209C3.78052 13.3198 3.70085 13.3168 3.62009 13.3097C3.02796 13.2576 2.44416 13.0226 1.95452 12.5971C0.690224 11.4988 0.525805 9.5477 1.58693 8.23947C2.17399 7.51526 3.01347 7.14004 3.86056 7.13479H8.21841L7.08775 8.52961H3.86056C3.39772 8.53448 2.93959 8.74027 2.61908 9.13611C2.03637 9.85433 2.1269 10.9256 2.8208 11.5288C3.12465 11.7923 3.49296 11.9227 3.86056 11.9261H3.86056ZM33.3207 12.1469L34.3416 13.4064L35.2213 12.3216L34.3677 11.2686C34.1522 10.9811 34.0236 10.6198 34.0236 10.228C34.0236 9.29017 34.7584 8.5296 35.6646 8.5296C36.5707 8.5296 37.3051 9.29017 37.3051 10.228C37.3051 10.6621 37.148 11.058 36.889 11.3582L34.2315 14.6363V16.5012C34.2315 16.5488 34.259 16.5893 34.3018 16.6057C34.3452 16.6219 34.3916 16.6091 34.4209 16.5724L37.7673 12.446C37.8839 12.3021 38.0048 12.16 38.1095 12.0063C38.4514 11.5037 38.6527 10.8897 38.6527 10.228C38.6527 8.51986 37.3149 7.13479 35.6646 7.13479C34.0142 7.13479 32.676 8.51986 32.676 10.228C32.676 10.953 32.9172 11.6199 33.3207 12.1469ZM25.6556 12.1851L25.6552 12.1848C25.539 12.3317 25.4079 12.47 25.2623 12.5967C24.7727 13.0222 24.1889 13.2572 23.5967 13.3093C23.4653 13.3209 23.3363 13.3217 23.2049 13.3213L22.5914 13.3209H16.0896L15.5782 13.3213C15.4652 13.3213 15.3587 13.3232 15.2523 13.3209C15.0306 13.3209 14.9538 13.3104 14.7351 13.2681C14.2469 13.1732 13.7746 12.951 13.3676 12.5975C13.2216 12.4704 13.0905 12.3325 12.9739 12.1851L12.9736 12.1848C12.8573 12.3317 12.7262 12.47 12.5806 12.5967C12.091 13.0222 11.5072 13.2572 10.9154 13.3093C10.7836 13.3209 10.655 13.3217 10.5232 13.3213L9.91006 13.3209H6.11211L7.24276 11.9261L9.91006 11.9254L10.6105 11.925C10.9991 11.937 11.3931 11.8073 11.7143 11.5284C12.4086 10.9253 12.4988 9.85432 11.9164 9.13574C11.6003 8.7459 11.1508 8.5401 10.6952 8.52961L10.2874 8.52998H7.96418L9.0952 7.13479H10.6749C11.5217 7.13966 12.3615 7.51489 12.9486 8.2391C13.4154 8.81487 13.645 9.51546 13.6475 10.2127H13.6479C13.6479 10.2221 13.6479 10.2318 13.6479 10.2412C13.6515 10.721 13.8507 11.1963 14.2339 11.5292C14.5279 11.7844 14.8832 11.9149 15.2396 11.9257L16.0896 11.9254V11.9261L22.5914 11.9254L23.2918 11.925C23.6804 11.937 24.0748 11.8073 24.3957 11.5284C25.0899 10.9253 25.1805 9.85433 24.5977 9.13574C24.2816 8.7459 23.8325 8.5401 23.3769 8.52961L22.9688 8.52998H15.22C14.7282 8.52998 14.3273 8.11465 14.3273 7.60598V6.35998L18.5243 1.18255C18.554 1.14581 18.6 1.13307 18.6431 1.14956C18.6866 1.16568 18.7141 1.20617 18.7141 1.25377V3.11978L15.4587 7.1348H23.3563C24.2034 7.13967 25.0428 7.51489 25.6299 8.23911C26.0963 8.81413 26.3238 9.4941 26.3296 10.2412C26.3332 10.721 26.5324 11.1963 26.9155 11.5292C27.2096 11.7844 27.5649 11.9149 27.9213 11.9258L28.9603 11.9254C29.3489 11.9377 29.7433 11.8077 30.0641 11.5288C30.7584 10.9257 30.8486 9.85433 30.2662 9.13612C29.9454 8.74028 29.4872 8.53411 29.0244 8.52962V7.1348C29.8715 7.13967 30.711 7.51527 31.298 8.23948C32.3595 9.54771 32.1947 11.4988 30.9304 12.5971C30.4408 13.0226 29.8574 13.2576 29.2649 13.3097C29.1338 13.3213 29.0048 13.3221 28.873 13.3213H28.2599C28.0697 13.3213 27.8966 13.3262 27.7145 13.3101C27.1223 13.258 26.5389 13.0226 26.0489 12.5975C25.903 12.4704 25.7718 12.3325 25.6556 12.1852L25.6556 12.1851ZM4.59357 10.243V9.45323H3.86563C3.64689 9.4566 3.44372 9.55631 3.30248 9.72987C3.03774 10.0564 3.07939 10.5474 3.39483 10.8211C3.52593 10.935 3.68854 11.0025 3.86057 11.0025C4.03259 11.0025 4.1952 10.935 4.3263 10.8211C4.49325 10.6764 4.58887 10.468 4.59357 10.243H4.59357ZM7.72588 9.45323V10.1891C7.72588 10.2288 7.72588 10.2682 7.72515 10.3079C7.72045 10.5429 7.69618 10.7753 7.65344 11.0025L10.6239 11.0014L10.6373 11.0017C10.8212 11.0074 10.9998 10.9429 11.1407 10.8211C11.4557 10.5467 11.4974 10.0556 11.2327 9.7295C11.0947 9.55969 10.8973 9.46073 10.6836 9.45323H10.2874H7.72587H7.72588ZM35.0641 10.691L35.6646 11.4313L36.214 10.7536L36.2234 10.7431C36.3461 10.6003 36.4128 10.4192 36.4128 10.228C36.4128 9.79997 36.0782 9.45323 35.6646 9.45323C35.251 9.45323 34.916 9.79997 34.916 10.228C34.916 10.396 34.9674 10.5564 35.0641 10.691H35.0641ZM14.5471 9.31754L14.5402 10.2198C14.5402 10.2243 14.5402 10.2292 14.5402 10.2337C14.5421 10.4619 14.6384 10.6745 14.8075 10.8214C14.9346 10.9316 15.0896 10.9946 15.2551 11.0017L16.9823 11.0014V11.0025L22.5914 11.0017L23.3052 11.0014L23.319 11.0017C23.5029 11.0074 23.6815 10.9429 23.822 10.8211C24.1374 10.5467 24.1791 10.0556 23.9143 9.72949C23.7764 9.55969 23.579 9.46073 23.365 9.45323H22.9688H15.22C14.9821 9.45323 14.7546 9.40487 14.5471 9.31753L14.5471 9.31754Z" fill="#373435"/>
</svg>
