<svg width="32" height="32" viewBox="0 0 32 32" fill="none" xmlns="http://www.w3.org/2000/svg">
<g clip-path="url(#clip0_1_1435)">
<path d="M23.2243 19.1748C22.829 18.9763 20.8798 18.0161 20.5165 17.8849C20.1532 17.7521 19.8892 17.6864 19.6251 18.0833C19.361 18.4786 18.6009 19.3732 18.3688 19.6373C18.1384 19.9013 17.9063 19.9333 17.511 19.7349C16.3429 19.2698 15.2646 18.6048 14.3247 17.7697C13.4579 16.9684 12.7147 16.0429 12.1195 15.0235C11.889 14.6266 12.0954 14.4121 12.2939 14.2153C12.4715 14.0377 12.6908 13.7528 12.8876 13.5207C13.0507 13.3204 13.1843 13.0978 13.2845 12.8598C13.3372 12.7504 13.3618 12.6295 13.3559 12.5082C13.3501 12.3869 13.314 12.269 13.2509 12.1652C13.1517 11.9668 12.3595 10.016 12.0298 9.22219C11.7082 8.45083 11.3817 8.55485 11.1368 8.54204C10.9064 8.53084 10.6423 8.52764 10.3783 8.52764C10.1774 8.53324 9.97987 8.58035 9.79809 8.66601C9.61632 8.75166 9.45423 8.87401 9.32204 9.02535C8.87398 9.44966 8.51921 9.96264 8.28032 10.5316C8.04144 11.1006 7.92367 11.7131 7.93454 12.3301C8.06304 13.8252 8.62538 15.2502 9.55249 16.4302C11.2519 18.978 13.5848 21.0401 16.322 22.4139C17.0603 22.7311 17.8146 23.0099 18.5817 23.2493C19.3904 23.4948 20.2453 23.5479 21.0782 23.4045C21.6299 23.2927 22.1523 23.0678 22.6126 22.7438C23.0729 22.4199 23.461 22.004 23.7524 21.5225C24.0124 20.9303 24.0925 20.2747 23.9829 19.6373C23.8852 19.4708 23.6212 19.3732 23.2243 19.1748ZM27.2124 4.64519C24.4917 1.92516 20.8753 0.286494 17.0364 0.0342711C13.1975 -0.217952 9.39774 0.933458 6.34456 3.27414C3.29139 5.61481 1.19283 8.98525 0.439606 12.758C-0.313622 16.5307 0.329803 20.4485 2.25009 23.7822L0 32L8.40824 29.7963C10.7338 31.0626 13.3395 31.7261 15.9875 31.7263H15.9939C19.1307 31.7247 22.1967 30.7934 24.8045 29.05C27.4123 27.3067 29.4448 24.8295 30.6453 21.9315C31.8458 19.0335 32.1605 15.8447 31.5494 12.7679C30.9384 9.69115 29.4292 6.86454 27.2124 4.64518V4.64519ZM22.9986 27.0325C20.8992 28.3484 18.4717 29.0467 15.9939 29.0473H15.9875C13.6268 29.0472 11.3097 28.4121 9.27883 27.2085L8.79713 26.9237L3.80723 28.2327L5.13873 23.3677L4.82666 22.8684C3.44163 20.6596 2.74265 18.0898 2.81812 15.4838C2.89358 12.8778 3.7401 10.3527 5.25062 8.22785C6.76115 6.10296 8.86784 4.4737 11.3043 3.5461C13.7408 2.61849 16.3976 2.43419 18.9388 3.01651C21.48 3.59883 23.7915 4.92161 25.5809 6.81758C27.3704 8.71356 28.5574 11.0976 28.992 13.6682C29.4265 16.2388 29.0891 18.8805 28.0223 21.2593C26.9555 23.6382 25.2072 25.6472 22.9986 27.0325Z" fill="#1CA6AB"/>
</g>
<defs>
<clipPath id="clip0_1_1435">
<rect width="31.8534" height="32" fill="white"/>
</clipPath>
</defs>
</svg>
